<mxfile host="app.diagrams.net" agent="Mozilla/5.0 (Windows NT 10.0; Win64; x64) AppleWebKit/537.36 (KHTML, like Gecko) Chrome/135.0.0.0 Safari/537.36" version="26.2.12">
  <diagram id="C5RBs43oDa-KdzZeNtuy" name="Page-1">
    <mxGraphModel dx="1428" dy="789" grid="1" gridSize="10" guides="1" tooltips="1" connect="1" arrows="1" fold="1" page="1" pageScale="1" pageWidth="1654" pageHeight="1169" math="0" shadow="0">
      <root>
        <mxCell id="WIyWlLk6GJQsqaUBKTNV-0" />
        <mxCell id="WIyWlLk6GJQsqaUBKTNV-1" parent="WIyWlLk6GJQsqaUBKTNV-0" />
        <mxCell id="u118RP1-p_GvoTwddQgb-247" value="" style="rounded=1;whiteSpace=wrap;html=1;" parent="WIyWlLk6GJQsqaUBKTNV-1" vertex="1">
          <mxGeometry x="10" y="670" width="1340" height="600" as="geometry" />
        </mxCell>
        <mxCell id="YrhgNjfPSIvD6Oy0800n-100" value="" style="rounded=1;whiteSpace=wrap;html=1;" vertex="1" parent="WIyWlLk6GJQsqaUBKTNV-1">
          <mxGeometry x="200" y="690" width="260" height="560" as="geometry" />
        </mxCell>
        <mxCell id="YrhgNjfPSIvD6Oy0800n-99" value="" style="rounded=1;whiteSpace=wrap;html=1;" vertex="1" parent="WIyWlLk6GJQsqaUBKTNV-1">
          <mxGeometry x="480" y="690" width="360" height="300" as="geometry" />
        </mxCell>
        <mxCell id="YrhgNjfPSIvD6Oy0800n-98" value="" style="rounded=1;whiteSpace=wrap;html=1;" vertex="1" parent="WIyWlLk6GJQsqaUBKTNV-1">
          <mxGeometry x="900" y="690" width="430" height="560" as="geometry" />
        </mxCell>
        <mxCell id="u118RP1-p_GvoTwddQgb-245" value="" style="rounded=1;whiteSpace=wrap;html=1;" parent="WIyWlLk6GJQsqaUBKTNV-1" vertex="1">
          <mxGeometry x="10" y="20" width="1210" height="600" as="geometry" />
        </mxCell>
        <mxCell id="u118RP1-p_GvoTwddQgb-113" value="Host" style="text;html=1;align=center;verticalAlign=middle;whiteSpace=wrap;rounded=0;" parent="WIyWlLk6GJQsqaUBKTNV-1" vertex="1">
          <mxGeometry x="109" y="40" width="100" height="30" as="geometry" />
        </mxCell>
        <mxCell id="u118RP1-p_GvoTwddQgb-115" value="Start" style="rounded=1;whiteSpace=wrap;html=1;fontSize=12;glass=0;strokeWidth=1;shadow=0;" parent="WIyWlLk6GJQsqaUBKTNV-1" vertex="1">
          <mxGeometry x="99" y="80" width="120" height="40" as="geometry" />
        </mxCell>
        <mxCell id="u118RP1-p_GvoTwddQgb-116" value="" style="rounded=0;html=1;jettySize=auto;orthogonalLoop=1;fontSize=11;endArrow=block;endFill=0;endSize=8;strokeWidth=1;shadow=0;labelBackgroundColor=none;edgeStyle=orthogonalEdgeStyle;" parent="WIyWlLk6GJQsqaUBKTNV-1" edge="1">
          <mxGeometry relative="1" as="geometry">
            <mxPoint x="158.66" y="120" as="sourcePoint" />
            <mxPoint x="158.66" y="170" as="targetPoint" />
          </mxGeometry>
        </mxCell>
        <mxCell id="ChZJjkdGleqHXlkFeqIv-6" style="edgeStyle=orthogonalEdgeStyle;rounded=0;orthogonalLoop=1;jettySize=auto;html=1;exitX=1;exitY=0.5;exitDx=0;exitDy=0;entryX=0;entryY=0.75;entryDx=0;entryDy=0;" parent="WIyWlLk6GJQsqaUBKTNV-1" source="u118RP1-p_GvoTwddQgb-117" target="u118RP1-p_GvoTwddQgb-121" edge="1">
          <mxGeometry relative="1" as="geometry">
            <Array as="points">
              <mxPoint x="390" y="280" />
              <mxPoint x="390" y="110" />
            </Array>
          </mxGeometry>
        </mxCell>
        <mxCell id="ChZJjkdGleqHXlkFeqIv-7" value="Send Lobby Creation" style="edgeLabel;html=1;align=center;verticalAlign=middle;resizable=0;points=[];" parent="ChZJjkdGleqHXlkFeqIv-6" vertex="1" connectable="0">
          <mxGeometry x="-0.6816" relative="1" as="geometry">
            <mxPoint x="13" y="-10" as="offset" />
          </mxGeometry>
        </mxCell>
        <mxCell id="u118RP1-p_GvoTwddQgb-117" value="Create Lobby" style="rounded=1;whiteSpace=wrap;html=1;fontSize=12;glass=0;strokeWidth=1;shadow=0;" parent="WIyWlLk6GJQsqaUBKTNV-1" vertex="1">
          <mxGeometry x="100" y="260" width="120" height="40" as="geometry" />
        </mxCell>
        <mxCell id="u118RP1-p_GvoTwddQgb-118" value="" style="rounded=0;html=1;jettySize=auto;orthogonalLoop=1;fontSize=11;endArrow=block;endFill=0;endSize=8;strokeWidth=1;shadow=0;labelBackgroundColor=none;edgeStyle=orthogonalEdgeStyle;" parent="WIyWlLk6GJQsqaUBKTNV-1" edge="1">
          <mxGeometry relative="1" as="geometry">
            <mxPoint x="158.66" y="210" as="sourcePoint" />
            <mxPoint x="158.66" y="260" as="targetPoint" />
          </mxGeometry>
        </mxCell>
        <mxCell id="u118RP1-p_GvoTwddQgb-120" value="Server" style="text;html=1;align=center;verticalAlign=middle;whiteSpace=wrap;rounded=0;" parent="WIyWlLk6GJQsqaUBKTNV-1" vertex="1">
          <mxGeometry x="548.17" y="40" width="100" height="30" as="geometry" />
        </mxCell>
        <mxCell id="u118RP1-p_GvoTwddQgb-165" style="edgeStyle=orthogonalEdgeStyle;rounded=0;orthogonalLoop=1;jettySize=auto;html=1;exitX=1;exitY=0.75;exitDx=0;exitDy=0;entryX=0;entryY=0.75;entryDx=0;entryDy=0;" parent="WIyWlLk6GJQsqaUBKTNV-1" source="u118RP1-p_GvoTwddQgb-121" target="x4QuiFUPyPYiEMU7ac_c-1" edge="1">
          <mxGeometry relative="1" as="geometry">
            <mxPoint x="1038" y="330" as="targetPoint" />
            <Array as="points">
              <mxPoint x="799" y="110" />
              <mxPoint x="799" y="380" />
            </Array>
          </mxGeometry>
        </mxCell>
        <mxCell id="u118RP1-p_GvoTwddQgb-166" value="Send Lobby List" style="edgeLabel;html=1;align=center;verticalAlign=middle;resizable=0;points=[];" parent="u118RP1-p_GvoTwddQgb-165" vertex="1" connectable="0">
          <mxGeometry x="-0.7665" y="-3" relative="1" as="geometry">
            <mxPoint x="3" y="7" as="offset" />
          </mxGeometry>
        </mxCell>
        <mxCell id="u118RP1-p_GvoTwddQgb-170" style="edgeStyle=orthogonalEdgeStyle;rounded=0;orthogonalLoop=1;jettySize=auto;html=1;entryX=0.5;entryY=0;entryDx=0;entryDy=0;" parent="WIyWlLk6GJQsqaUBKTNV-1" target="u118RP1-p_GvoTwddQgb-169" edge="1">
          <mxGeometry relative="1" as="geometry">
            <mxPoint x="639" y="120" as="sourcePoint" />
            <mxPoint x="639" y="300" as="targetPoint" />
          </mxGeometry>
        </mxCell>
        <mxCell id="u118RP1-p_GvoTwddQgb-185" style="edgeStyle=orthogonalEdgeStyle;rounded=0;orthogonalLoop=1;jettySize=auto;html=1;exitX=0.25;exitY=1;exitDx=0;exitDy=0;entryX=0.75;entryY=0;entryDx=0;entryDy=0;" parent="WIyWlLk6GJQsqaUBKTNV-1" target="u118RP1-p_GvoTwddQgb-186" edge="1">
          <mxGeometry relative="1" as="geometry">
            <mxPoint x="559" y="320" as="targetPoint" />
            <mxPoint x="559.1700000000001" y="120" as="sourcePoint" />
          </mxGeometry>
        </mxCell>
        <mxCell id="u118RP1-p_GvoTwddQgb-121" value="Start" style="rounded=1;whiteSpace=wrap;html=1;fontSize=12;glass=0;strokeWidth=1;shadow=0;" parent="WIyWlLk6GJQsqaUBKTNV-1" vertex="1">
          <mxGeometry x="538.17" y="80" width="120" height="40" as="geometry" />
        </mxCell>
        <mxCell id="u118RP1-p_GvoTwddQgb-122" style="edgeStyle=orthogonalEdgeStyle;rounded=0;orthogonalLoop=1;jettySize=auto;html=1;exitX=1;exitY=0.5;exitDx=0;exitDy=0;" parent="WIyWlLk6GJQsqaUBKTNV-1" source="u118RP1-p_GvoTwddQgb-125" edge="1">
          <mxGeometry relative="1" as="geometry">
            <mxPoint x="160" y="310" as="sourcePoint" />
            <mxPoint x="538" y="90" as="targetPoint" />
            <Array as="points">
              <mxPoint x="370" y="190" />
              <mxPoint x="370" y="90" />
              <mxPoint x="538" y="90" />
            </Array>
          </mxGeometry>
        </mxCell>
        <mxCell id="u118RP1-p_GvoTwddQgb-123" value="Success" style="edgeLabel;html=1;align=center;verticalAlign=middle;resizable=0;points=[];" parent="u118RP1-p_GvoTwddQgb-122" vertex="1" connectable="0">
          <mxGeometry x="-0.4021" y="-2" relative="1" as="geometry">
            <mxPoint x="-211" y="38" as="offset" />
          </mxGeometry>
        </mxCell>
        <mxCell id="u118RP1-p_GvoTwddQgb-126" style="edgeStyle=orthogonalEdgeStyle;rounded=0;orthogonalLoop=1;jettySize=auto;html=1;entryX=0;entryY=0.5;entryDx=0;entryDy=0;exitX=0;exitY=0.5;exitDx=0;exitDy=0;" parent="WIyWlLk6GJQsqaUBKTNV-1" source="u118RP1-p_GvoTwddQgb-125" target="u118RP1-p_GvoTwddQgb-115" edge="1">
          <mxGeometry relative="1" as="geometry">
            <Array as="points">
              <mxPoint x="39" y="190" />
              <mxPoint x="39" y="100" />
            </Array>
            <mxPoint x="100" y="280" as="sourcePoint" />
          </mxGeometry>
        </mxCell>
        <mxCell id="u118RP1-p_GvoTwddQgb-127" value="Failed" style="edgeLabel;html=1;align=center;verticalAlign=middle;resizable=0;points=[];" parent="u118RP1-p_GvoTwddQgb-126" vertex="1" connectable="0">
          <mxGeometry x="0.0091" y="-2" relative="1" as="geometry">
            <mxPoint x="18" y="1" as="offset" />
          </mxGeometry>
        </mxCell>
        <mxCell id="u118RP1-p_GvoTwddQgb-125" value="Connect to Server" style="rhombus;whiteSpace=wrap;html=1;" parent="WIyWlLk6GJQsqaUBKTNV-1" vertex="1">
          <mxGeometry x="100" y="170" width="120" height="40" as="geometry" />
        </mxCell>
        <mxCell id="u118RP1-p_GvoTwddQgb-131" value="" style="rounded=0;html=1;jettySize=auto;orthogonalLoop=1;fontSize=11;endArrow=block;endFill=0;endSize=8;strokeWidth=1;shadow=0;labelBackgroundColor=none;edgeStyle=orthogonalEdgeStyle;entryX=0.5;entryY=0;entryDx=0;entryDy=0;" parent="WIyWlLk6GJQsqaUBKTNV-1" source="u118RP1-p_GvoTwddQgb-117" target="u118RP1-p_GvoTwddQgb-132" edge="1">
          <mxGeometry relative="1" as="geometry">
            <mxPoint x="160" y="380" as="sourcePoint" />
            <mxPoint x="159" y="520" as="targetPoint" />
          </mxGeometry>
        </mxCell>
        <mxCell id="u118RP1-p_GvoTwddQgb-132" value="Game Loop" style="rounded=1;whiteSpace=wrap;html=1;fontSize=12;glass=0;strokeWidth=1;shadow=0;" parent="WIyWlLk6GJQsqaUBKTNV-1" vertex="1">
          <mxGeometry x="100" y="542" width="120" height="40" as="geometry" />
        </mxCell>
        <mxCell id="u118RP1-p_GvoTwddQgb-149" value="Client" style="text;html=1;align=center;verticalAlign=middle;whiteSpace=wrap;rounded=0;" parent="WIyWlLk6GJQsqaUBKTNV-1" vertex="1">
          <mxGeometry x="989.6700000000001" y="40" width="100" height="30" as="geometry" />
        </mxCell>
        <mxCell id="u118RP1-p_GvoTwddQgb-150" value="Start" style="rounded=1;whiteSpace=wrap;html=1;fontSize=12;glass=0;strokeWidth=1;shadow=0;" parent="WIyWlLk6GJQsqaUBKTNV-1" vertex="1">
          <mxGeometry x="979.6700000000001" y="80" width="120" height="40" as="geometry" />
        </mxCell>
        <mxCell id="u118RP1-p_GvoTwddQgb-151" value="" style="rounded=0;html=1;jettySize=auto;orthogonalLoop=1;fontSize=11;endArrow=block;endFill=0;endSize=8;strokeWidth=1;shadow=0;labelBackgroundColor=none;edgeStyle=orthogonalEdgeStyle;" parent="WIyWlLk6GJQsqaUBKTNV-1" edge="1">
          <mxGeometry relative="1" as="geometry">
            <mxPoint x="1039.33" y="120" as="sourcePoint" />
            <mxPoint x="1039.33" y="170" as="targetPoint" />
          </mxGeometry>
        </mxCell>
        <mxCell id="ChZJjkdGleqHXlkFeqIv-8" style="edgeStyle=orthogonalEdgeStyle;rounded=0;orthogonalLoop=1;jettySize=auto;html=1;exitX=0;exitY=0.5;exitDx=0;exitDy=0;" parent="WIyWlLk6GJQsqaUBKTNV-1" source="u118RP1-p_GvoTwddQgb-152" edge="1">
          <mxGeometry relative="1" as="geometry">
            <mxPoint x="660" y="90" as="targetPoint" />
            <Array as="points">
              <mxPoint x="900" y="280" />
              <mxPoint x="900" y="90" />
            </Array>
          </mxGeometry>
        </mxCell>
        <mxCell id="ChZJjkdGleqHXlkFeqIv-9" value="Send Join Lobby" style="edgeLabel;html=1;align=center;verticalAlign=middle;resizable=0;points=[];" parent="ChZJjkdGleqHXlkFeqIv-8" vertex="1" connectable="0">
          <mxGeometry x="0.4097" y="1" relative="1" as="geometry">
            <mxPoint x="-29" y="-11" as="offset" />
          </mxGeometry>
        </mxCell>
        <mxCell id="x4QuiFUPyPYiEMU7ac_c-2" style="edgeStyle=none;curved=1;rounded=0;orthogonalLoop=1;jettySize=auto;html=1;exitX=0.5;exitY=1;exitDx=0;exitDy=0;entryX=0.5;entryY=0;entryDx=0;entryDy=0;fontSize=12;startSize=8;endSize=8;" parent="WIyWlLk6GJQsqaUBKTNV-1" source="u118RP1-p_GvoTwddQgb-152" target="x4QuiFUPyPYiEMU7ac_c-1" edge="1">
          <mxGeometry relative="1" as="geometry" />
        </mxCell>
        <mxCell id="u118RP1-p_GvoTwddQgb-152" value="Join Lobby" style="rounded=1;whiteSpace=wrap;html=1;fontSize=12;glass=0;strokeWidth=1;shadow=0;" parent="WIyWlLk6GJQsqaUBKTNV-1" vertex="1">
          <mxGeometry x="979.6700000000001" y="260" width="120" height="40" as="geometry" />
        </mxCell>
        <mxCell id="u118RP1-p_GvoTwddQgb-153" value="" style="rounded=0;html=1;jettySize=auto;orthogonalLoop=1;fontSize=11;endArrow=block;endFill=0;endSize=8;strokeWidth=1;shadow=0;labelBackgroundColor=none;edgeStyle=orthogonalEdgeStyle;" parent="WIyWlLk6GJQsqaUBKTNV-1" edge="1">
          <mxGeometry relative="1" as="geometry">
            <mxPoint x="1039.33" y="210" as="sourcePoint" />
            <mxPoint x="1039.33" y="260" as="targetPoint" />
          </mxGeometry>
        </mxCell>
        <mxCell id="u118RP1-p_GvoTwddQgb-159" style="edgeStyle=orthogonalEdgeStyle;rounded=0;orthogonalLoop=1;jettySize=auto;html=1;exitX=1;exitY=0.5;exitDx=0;exitDy=0;entryX=1;entryY=0.5;entryDx=0;entryDy=0;" parent="WIyWlLk6GJQsqaUBKTNV-1" source="u118RP1-p_GvoTwddQgb-156" target="u118RP1-p_GvoTwddQgb-150" edge="1">
          <mxGeometry relative="1" as="geometry">
            <Array as="points">
              <mxPoint x="1171" y="190" />
              <mxPoint x="1171" y="100" />
            </Array>
          </mxGeometry>
        </mxCell>
        <mxCell id="u118RP1-p_GvoTwddQgb-160" value="Failed" style="edgeLabel;html=1;align=center;verticalAlign=middle;resizable=0;points=[];" parent="u118RP1-p_GvoTwddQgb-159" vertex="1" connectable="0">
          <mxGeometry x="0.0062" y="2" relative="1" as="geometry">
            <mxPoint x="-17" y="1" as="offset" />
          </mxGeometry>
        </mxCell>
        <mxCell id="u118RP1-p_GvoTwddQgb-200" style="edgeStyle=orthogonalEdgeStyle;rounded=0;orthogonalLoop=1;jettySize=auto;html=1;exitX=0;exitY=0.25;exitDx=0;exitDy=0;" parent="WIyWlLk6GJQsqaUBKTNV-1" source="x4QuiFUPyPYiEMU7ac_c-1" edge="1">
          <mxGeometry relative="1" as="geometry">
            <mxPoint x="1040" y="310" as="sourcePoint" />
            <mxPoint x="660" y="100" as="targetPoint" />
            <Array as="points">
              <mxPoint x="849" y="360" />
              <mxPoint x="849" y="100" />
            </Array>
          </mxGeometry>
        </mxCell>
        <mxCell id="u118RP1-p_GvoTwddQgb-201" value="Success" style="edgeLabel;html=1;align=center;verticalAlign=middle;resizable=0;points=[];" parent="u118RP1-p_GvoTwddQgb-200" vertex="1" connectable="0">
          <mxGeometry x="-0.6281" y="-3" relative="1" as="geometry">
            <mxPoint x="193" y="-127" as="offset" />
          </mxGeometry>
        </mxCell>
        <mxCell id="x4QuiFUPyPYiEMU7ac_c-3" value="Send Page Number" style="edgeLabel;html=1;align=center;verticalAlign=middle;resizable=0;points=[];fontSize=12;" parent="u118RP1-p_GvoTwddQgb-200" vertex="1" connectable="0">
          <mxGeometry x="-0.7458" y="1" relative="1" as="geometry">
            <mxPoint x="10" y="-11" as="offset" />
          </mxGeometry>
        </mxCell>
        <mxCell id="u118RP1-p_GvoTwddQgb-156" value="Connect to Server" style="rhombus;whiteSpace=wrap;html=1;" parent="WIyWlLk6GJQsqaUBKTNV-1" vertex="1">
          <mxGeometry x="979.67" y="170" width="120" height="40" as="geometry" />
        </mxCell>
        <mxCell id="u118RP1-p_GvoTwddQgb-167" value="" style="rounded=0;html=1;jettySize=auto;orthogonalLoop=1;fontSize=11;endArrow=block;endFill=0;endSize=8;strokeWidth=1;shadow=0;labelBackgroundColor=none;edgeStyle=orthogonalEdgeStyle;exitX=0.5;exitY=1;exitDx=0;exitDy=0;" parent="WIyWlLk6GJQsqaUBKTNV-1" source="x4QuiFUPyPYiEMU7ac_c-1" edge="1">
          <mxGeometry relative="1" as="geometry">
            <mxPoint x="1039.67" y="402" as="sourcePoint" />
            <mxPoint x="1039.33" y="442" as="targetPoint" />
          </mxGeometry>
        </mxCell>
        <mxCell id="u118RP1-p_GvoTwddQgb-172" style="edgeStyle=orthogonalEdgeStyle;rounded=0;orthogonalLoop=1;jettySize=auto;html=1;exitX=0;exitY=0.25;exitDx=0;exitDy=0;entryX=1;entryY=0;entryDx=0;entryDy=0;" parent="WIyWlLk6GJQsqaUBKTNV-1" source="u118RP1-p_GvoTwddQgb-168" target="u118RP1-p_GvoTwddQgb-169" edge="1">
          <mxGeometry relative="1" as="geometry" />
        </mxCell>
        <mxCell id="u118RP1-p_GvoTwddQgb-173" value="Send Selected Lobby" style="edgeLabel;html=1;align=center;verticalAlign=middle;resizable=0;points=[];" parent="u118RP1-p_GvoTwddQgb-172" vertex="1" connectable="0">
          <mxGeometry x="-0.0291" y="1" relative="1" as="geometry">
            <mxPoint x="1" y="-11" as="offset" />
          </mxGeometry>
        </mxCell>
        <mxCell id="u118RP1-p_GvoTwddQgb-168" value="Select Lobby" style="rounded=1;whiteSpace=wrap;html=1;fontSize=12;glass=0;strokeWidth=1;shadow=0;" parent="WIyWlLk6GJQsqaUBKTNV-1" vertex="1">
          <mxGeometry x="979.6700000000001" y="442" width="120" height="40" as="geometry" />
        </mxCell>
        <mxCell id="u118RP1-p_GvoTwddQgb-174" style="edgeStyle=orthogonalEdgeStyle;rounded=0;orthogonalLoop=1;jettySize=auto;html=1;exitX=1;exitY=1;exitDx=0;exitDy=0;entryX=0;entryY=0.75;entryDx=0;entryDy=0;" parent="WIyWlLk6GJQsqaUBKTNV-1" source="u118RP1-p_GvoTwddQgb-169" target="u118RP1-p_GvoTwddQgb-168" edge="1">
          <mxGeometry relative="1" as="geometry" />
        </mxCell>
        <mxCell id="u118RP1-p_GvoTwddQgb-175" value="No" style="edgeLabel;html=1;align=center;verticalAlign=middle;resizable=0;points=[];" parent="u118RP1-p_GvoTwddQgb-174" vertex="1" connectable="0">
          <mxGeometry x="0.0348" y="-2" relative="1" as="geometry">
            <mxPoint y="8" as="offset" />
          </mxGeometry>
        </mxCell>
        <mxCell id="u118RP1-p_GvoTwddQgb-179" style="edgeStyle=orthogonalEdgeStyle;rounded=0;orthogonalLoop=1;jettySize=auto;html=1;exitX=0.5;exitY=1;exitDx=0;exitDy=0;entryX=0;entryY=0;entryDx=0;entryDy=0;" parent="WIyWlLk6GJQsqaUBKTNV-1" source="u118RP1-p_GvoTwddQgb-169" target="u118RP1-p_GvoTwddQgb-178" edge="1">
          <mxGeometry relative="1" as="geometry">
            <Array as="points">
              <mxPoint x="639" y="542" />
            </Array>
          </mxGeometry>
        </mxCell>
        <mxCell id="u118RP1-p_GvoTwddQgb-180" value="Yes" style="edgeLabel;html=1;align=center;verticalAlign=middle;resizable=0;points=[];" parent="u118RP1-p_GvoTwddQgb-179" vertex="1" connectable="0">
          <mxGeometry x="0.1338" y="-1" relative="1" as="geometry">
            <mxPoint x="-166" y="-31" as="offset" />
          </mxGeometry>
        </mxCell>
        <mxCell id="ChZJjkdGleqHXlkFeqIv-5" value="Send Host&#39;s Address" style="edgeLabel;html=1;align=center;verticalAlign=middle;resizable=0;points=[];" parent="u118RP1-p_GvoTwddQgb-179" vertex="1" connectable="0">
          <mxGeometry x="0.1607" y="-3" relative="1" as="geometry">
            <mxPoint x="-1" y="-13" as="offset" />
          </mxGeometry>
        </mxCell>
        <mxCell id="u118RP1-p_GvoTwddQgb-169" value="Can Join?" style="rhombus;whiteSpace=wrap;html=1;" parent="WIyWlLk6GJQsqaUBKTNV-1" vertex="1">
          <mxGeometry x="579" y="442" width="120" height="40" as="geometry" />
        </mxCell>
        <mxCell id="u118RP1-p_GvoTwddQgb-176" value="" style="rounded=0;html=1;jettySize=auto;orthogonalLoop=1;fontSize=11;endArrow=block;endFill=0;endSize=8;strokeWidth=1;shadow=0;labelBackgroundColor=none;edgeStyle=orthogonalEdgeStyle;" parent="WIyWlLk6GJQsqaUBKTNV-1" edge="1">
          <mxGeometry relative="1" as="geometry">
            <mxPoint x="1039.33" y="482" as="sourcePoint" />
            <mxPoint x="1039.33" y="532" as="targetPoint" />
          </mxGeometry>
        </mxCell>
        <mxCell id="u118RP1-p_GvoTwddQgb-181" style="edgeStyle=orthogonalEdgeStyle;rounded=0;orthogonalLoop=1;jettySize=auto;html=1;exitX=0;exitY=1;exitDx=0;exitDy=0;entryX=1;entryY=0.5;entryDx=0;entryDy=0;" parent="WIyWlLk6GJQsqaUBKTNV-1" source="u118RP1-p_GvoTwddQgb-178" target="u118RP1-p_GvoTwddQgb-132" edge="1">
          <mxGeometry relative="1" as="geometry" />
        </mxCell>
        <mxCell id="u118RP1-p_GvoTwddQgb-182" value="Success" style="edgeLabel;html=1;align=center;verticalAlign=middle;resizable=0;points=[];" parent="u118RP1-p_GvoTwddQgb-181" vertex="1" connectable="0">
          <mxGeometry x="0.044" relative="1" as="geometry">
            <mxPoint x="3" y="10" as="offset" />
          </mxGeometry>
        </mxCell>
        <mxCell id="u118RP1-p_GvoTwddQgb-190" style="edgeStyle=orthogonalEdgeStyle;rounded=0;orthogonalLoop=1;jettySize=auto;html=1;exitX=1;exitY=0.5;exitDx=0;exitDy=0;entryX=1;entryY=0.5;entryDx=0;entryDy=0;" parent="WIyWlLk6GJQsqaUBKTNV-1" source="u118RP1-p_GvoTwddQgb-178" target="u118RP1-p_GvoTwddQgb-168" edge="1">
          <mxGeometry relative="1" as="geometry">
            <Array as="points">
              <mxPoint x="1171" y="552" />
              <mxPoint x="1171" y="462" />
            </Array>
          </mxGeometry>
        </mxCell>
        <mxCell id="u118RP1-p_GvoTwddQgb-191" value="Failed" style="edgeLabel;html=1;align=center;verticalAlign=middle;resizable=0;points=[];" parent="u118RP1-p_GvoTwddQgb-190" vertex="1" connectable="0">
          <mxGeometry x="0.0172" y="-2" relative="1" as="geometry">
            <mxPoint x="-21" as="offset" />
          </mxGeometry>
        </mxCell>
        <mxCell id="u118RP1-p_GvoTwddQgb-178" value="Connect to Host" style="rhombus;whiteSpace=wrap;html=1;" parent="WIyWlLk6GJQsqaUBKTNV-1" vertex="1">
          <mxGeometry x="979.6700000000001" y="532" width="120" height="40" as="geometry" />
        </mxCell>
        <mxCell id="u118RP1-p_GvoTwddQgb-187" style="edgeStyle=orthogonalEdgeStyle;rounded=0;orthogonalLoop=1;jettySize=auto;html=1;exitX=1;exitY=0.5;exitDx=0;exitDy=0;entryX=0;entryY=0.5;entryDx=0;entryDy=0;" parent="WIyWlLk6GJQsqaUBKTNV-1" source="u118RP1-p_GvoTwddQgb-183" target="u118RP1-p_GvoTwddQgb-186" edge="1">
          <mxGeometry relative="1" as="geometry" />
        </mxCell>
        <mxCell id="u118RP1-p_GvoTwddQgb-188" value="Notify Someone is Disconnected" style="edgeLabel;html=1;align=center;verticalAlign=middle;resizable=0;points=[];" parent="u118RP1-p_GvoTwddQgb-187" vertex="1" connectable="0">
          <mxGeometry x="-0.0743" relative="1" as="geometry">
            <mxPoint x="6" y="-10" as="offset" />
          </mxGeometry>
        </mxCell>
        <mxCell id="u118RP1-p_GvoTwddQgb-183" value="Someone Left" style="rounded=1;whiteSpace=wrap;html=1;fontSize=12;glass=0;strokeWidth=1;shadow=0;" parent="WIyWlLk6GJQsqaUBKTNV-1" vertex="1">
          <mxGeometry x="169" y="412" width="120" height="40" as="geometry" />
        </mxCell>
        <mxCell id="u118RP1-p_GvoTwddQgb-184" style="edgeStyle=orthogonalEdgeStyle;rounded=0;orthogonalLoop=1;jettySize=auto;html=1;exitX=0.75;exitY=0;exitDx=0;exitDy=0;" parent="WIyWlLk6GJQsqaUBKTNV-1" source="u118RP1-p_GvoTwddQgb-132" edge="1">
          <mxGeometry relative="1" as="geometry">
            <mxPoint x="189" y="502" as="sourcePoint" />
            <mxPoint x="189" y="452" as="targetPoint" />
          </mxGeometry>
        </mxCell>
        <mxCell id="u118RP1-p_GvoTwddQgb-186" value="Update Lobby" style="rounded=1;whiteSpace=wrap;html=1;fontSize=12;glass=0;strokeWidth=1;shadow=0;" parent="WIyWlLk6GJQsqaUBKTNV-1" vertex="1">
          <mxGeometry x="469" y="412" width="120" height="40" as="geometry" />
        </mxCell>
        <mxCell id="u118RP1-p_GvoTwddQgb-194" value="" style="rounded=0;html=1;jettySize=auto;orthogonalLoop=1;fontSize=11;endArrow=block;endFill=0;endSize=8;strokeWidth=1;shadow=0;labelBackgroundColor=none;edgeStyle=orthogonalEdgeStyle;entryX=0.5;entryY=1;entryDx=0;entryDy=0;" parent="WIyWlLk6GJQsqaUBKTNV-1" target="u118RP1-p_GvoTwddQgb-195" edge="1">
          <mxGeometry relative="1" as="geometry">
            <mxPoint x="400" y="562" as="sourcePoint" />
            <mxPoint x="439.9999999999999" y="717" as="targetPoint" />
          </mxGeometry>
        </mxCell>
        <mxCell id="u118RP1-p_GvoTwddQgb-195" value="Disconnect from&lt;div&gt;Server&lt;/div&gt;" style="rounded=1;whiteSpace=wrap;html=1;fontSize=12;glass=0;strokeWidth=1;shadow=0;" parent="WIyWlLk6GJQsqaUBKTNV-1" vertex="1">
          <mxGeometry x="340" y="472" width="120" height="40" as="geometry" />
        </mxCell>
        <mxCell id="u118RP1-p_GvoTwddQgb-203" value="Client" style="text;html=1;align=center;verticalAlign=middle;whiteSpace=wrap;rounded=0;" parent="WIyWlLk6GJQsqaUBKTNV-1" vertex="1">
          <mxGeometry x="1070.0000000000002" y="700" width="100" height="30" as="geometry" />
        </mxCell>
        <mxCell id="u118RP1-p_GvoTwddQgb-206" value="Host" style="text;html=1;align=center;verticalAlign=middle;whiteSpace=wrap;rounded=0;" parent="WIyWlLk6GJQsqaUBKTNV-1" vertex="1">
          <mxGeometry x="59" y="700" width="100" height="30" as="geometry" />
        </mxCell>
        <mxCell id="u118RP1-p_GvoTwddQgb-209" style="edgeStyle=orthogonalEdgeStyle;rounded=0;orthogonalLoop=1;jettySize=auto;html=1;exitX=1;exitY=0.5;exitDx=0;exitDy=0;entryX=0;entryY=0.5;entryDx=0;entryDy=0;" parent="WIyWlLk6GJQsqaUBKTNV-1" source="u118RP1-p_GvoTwddQgb-207" target="u118RP1-p_GvoTwddQgb-208" edge="1">
          <mxGeometry relative="1" as="geometry" />
        </mxCell>
        <mxCell id="u118RP1-p_GvoTwddQgb-207" value="Game Start" style="rounded=1;whiteSpace=wrap;html=1;fontSize=12;glass=0;strokeWidth=1;shadow=0;" parent="WIyWlLk6GJQsqaUBKTNV-1" vertex="1">
          <mxGeometry x="49" y="740" width="120" height="40" as="geometry" />
        </mxCell>
        <mxCell id="u118RP1-p_GvoTwddQgb-208" value="Create Server Thread" style="rounded=1;whiteSpace=wrap;html=1;fontSize=12;glass=0;strokeWidth=1;shadow=0;" parent="WIyWlLk6GJQsqaUBKTNV-1" vertex="1">
          <mxGeometry x="268.16999999999996" y="740" width="120" height="40" as="geometry" />
        </mxCell>
        <mxCell id="u118RP1-p_GvoTwddQgb-212" value="" style="rounded=0;html=1;jettySize=auto;orthogonalLoop=1;fontSize=11;endArrow=block;endFill=0;endSize=8;strokeWidth=1;shadow=0;labelBackgroundColor=none;edgeStyle=orthogonalEdgeStyle;" parent="WIyWlLk6GJQsqaUBKTNV-1" edge="1">
          <mxGeometry relative="1" as="geometry">
            <mxPoint x="108.66" y="780" as="sourcePoint" />
            <mxPoint x="108.66" y="830" as="targetPoint" />
          </mxGeometry>
        </mxCell>
        <mxCell id="u118RP1-p_GvoTwddQgb-213" value="Game Loop" style="rounded=1;whiteSpace=wrap;html=1;fontSize=12;glass=0;strokeWidth=1;shadow=0;" parent="WIyWlLk6GJQsqaUBKTNV-1" vertex="1">
          <mxGeometry x="49" y="830" width="120" height="40" as="geometry" />
        </mxCell>
        <mxCell id="YrhgNjfPSIvD6Oy0800n-52" style="edgeStyle=orthogonalEdgeStyle;rounded=0;orthogonalLoop=1;jettySize=auto;html=1;exitX=0.5;exitY=1;exitDx=0;exitDy=0;entryX=0.5;entryY=0;entryDx=0;entryDy=0;" edge="1" parent="WIyWlLk6GJQsqaUBKTNV-1" source="u118RP1-p_GvoTwddQgb-214">
          <mxGeometry relative="1" as="geometry">
            <mxPoint x="1222.3500000000001" y="830" as="targetPoint" />
          </mxGeometry>
        </mxCell>
        <mxCell id="u118RP1-p_GvoTwddQgb-214" value="Game Loop" style="rounded=1;whiteSpace=wrap;html=1;fontSize=12;glass=0;strokeWidth=1;shadow=0;" parent="WIyWlLk6GJQsqaUBKTNV-1" vertex="1">
          <mxGeometry x="1162.3500000000001" y="740" width="120" height="40" as="geometry" />
        </mxCell>
        <mxCell id="u118RP1-p_GvoTwddQgb-216" value="" style="rounded=0;html=1;jettySize=auto;orthogonalLoop=1;fontSize=11;endArrow=block;endFill=0;endSize=8;strokeWidth=1;shadow=0;labelBackgroundColor=none;edgeStyle=orthogonalEdgeStyle;" parent="WIyWlLk6GJQsqaUBKTNV-1" edge="1">
          <mxGeometry relative="1" as="geometry">
            <mxPoint x="327.83000000000004" y="780" as="sourcePoint" />
            <mxPoint x="327.83000000000004" y="830" as="targetPoint" />
          </mxGeometry>
        </mxCell>
        <mxCell id="u118RP1-p_GvoTwddQgb-223" value="" style="rounded=0;html=1;jettySize=auto;orthogonalLoop=1;fontSize=11;endArrow=block;endFill=0;endSize=8;strokeWidth=1;shadow=0;labelBackgroundColor=none;edgeStyle=orthogonalEdgeStyle;" parent="WIyWlLk6GJQsqaUBKTNV-1" edge="1">
          <mxGeometry relative="1" as="geometry">
            <mxPoint x="327.83000000000004" y="870" as="sourcePoint" />
            <mxPoint x="327.83000000000004" y="920" as="targetPoint" />
          </mxGeometry>
        </mxCell>
        <mxCell id="YrhgNjfPSIvD6Oy0800n-15" value="Yes" style="edgeLabel;html=1;align=center;verticalAlign=middle;resizable=0;points=[];" vertex="1" connectable="0" parent="u118RP1-p_GvoTwddQgb-223">
          <mxGeometry x="-0.08" y="-1" relative="1" as="geometry">
            <mxPoint x="13" as="offset" />
          </mxGeometry>
        </mxCell>
        <mxCell id="u118RP1-p_GvoTwddQgb-229" value="" style="rounded=0;html=1;jettySize=auto;orthogonalLoop=1;fontSize=11;endArrow=block;endFill=0;endSize=8;strokeWidth=1;shadow=0;labelBackgroundColor=none;edgeStyle=orthogonalEdgeStyle;" parent="WIyWlLk6GJQsqaUBKTNV-1" edge="1">
          <mxGeometry relative="1" as="geometry">
            <mxPoint x="327.83000000000004" y="960" as="sourcePoint" />
            <mxPoint x="327.83000000000004" y="1010" as="targetPoint" />
          </mxGeometry>
        </mxCell>
        <mxCell id="u118RP1-p_GvoTwddQgb-231" value="Game Logic" style="rounded=1;whiteSpace=wrap;html=1;fontSize=12;glass=0;strokeWidth=1;shadow=0;" parent="WIyWlLk6GJQsqaUBKTNV-1" vertex="1">
          <mxGeometry x="268.1700000000001" y="1010" width="120" height="40" as="geometry" />
        </mxCell>
        <mxCell id="u118RP1-p_GvoTwddQgb-240" value="Server Thread" style="text;html=1;align=center;verticalAlign=middle;whiteSpace=wrap;rounded=0;" parent="WIyWlLk6GJQsqaUBKTNV-1" vertex="1">
          <mxGeometry x="279.99999999999994" y="700" width="100" height="30" as="geometry" />
        </mxCell>
        <mxCell id="u118RP1-p_GvoTwddQgb-246" value="Lobby" style="text;html=1;align=center;verticalAlign=middle;whiteSpace=wrap;rounded=0;" parent="WIyWlLk6GJQsqaUBKTNV-1" vertex="1">
          <mxGeometry x="10" y="20" width="60" height="30" as="geometry" />
        </mxCell>
        <mxCell id="u118RP1-p_GvoTwddQgb-248" value="In-Game" style="text;html=1;align=center;verticalAlign=middle;whiteSpace=wrap;rounded=0;" parent="WIyWlLk6GJQsqaUBKTNV-1" vertex="1">
          <mxGeometry x="10" y="670" width="60" height="30" as="geometry" />
        </mxCell>
        <mxCell id="x4QuiFUPyPYiEMU7ac_c-1" value="Select Page" style="rounded=1;whiteSpace=wrap;html=1;fontSize=12;glass=0;strokeWidth=1;shadow=0;" parent="WIyWlLk6GJQsqaUBKTNV-1" vertex="1">
          <mxGeometry x="979.6700000000001" y="350" width="120" height="40" as="geometry" />
        </mxCell>
        <mxCell id="YrhgNjfPSIvD6Oy0800n-2" style="edgeStyle=orthogonalEdgeStyle;rounded=0;orthogonalLoop=1;jettySize=auto;html=1;exitX=1;exitY=0.5;exitDx=0;exitDy=0;entryX=0;entryY=0.5;entryDx=0;entryDy=0;" edge="1" parent="WIyWlLk6GJQsqaUBKTNV-1" target="YrhgNjfPSIvD6Oy0800n-3">
          <mxGeometry relative="1" as="geometry">
            <mxPoint x="388.16999999999996" y="759.58" as="sourcePoint" />
            <mxPoint x="487.34000000000003" y="759.58" as="targetPoint" />
          </mxGeometry>
        </mxCell>
        <mxCell id="YrhgNjfPSIvD6Oy0800n-3" value="Create Accept Thread" style="rounded=1;whiteSpace=wrap;html=1;fontSize=12;glass=0;strokeWidth=1;shadow=0;" vertex="1" parent="WIyWlLk6GJQsqaUBKTNV-1">
          <mxGeometry x="490" y="740" width="120" height="40" as="geometry" />
        </mxCell>
        <mxCell id="YrhgNjfPSIvD6Oy0800n-4" value="" style="rounded=0;html=1;jettySize=auto;orthogonalLoop=1;fontSize=11;endArrow=block;endFill=0;endSize=8;strokeWidth=1;shadow=0;labelBackgroundColor=none;edgeStyle=orthogonalEdgeStyle;" edge="1" parent="WIyWlLk6GJQsqaUBKTNV-1">
          <mxGeometry relative="1" as="geometry">
            <mxPoint x="549.58" y="780" as="sourcePoint" />
            <mxPoint x="549.58" y="830" as="targetPoint" />
          </mxGeometry>
        </mxCell>
        <mxCell id="YrhgNjfPSIvD6Oy0800n-95" style="edgeStyle=orthogonalEdgeStyle;rounded=0;orthogonalLoop=1;jettySize=auto;html=1;exitX=1;exitY=0.5;exitDx=0;exitDy=0;entryX=0;entryY=0.5;entryDx=0;entryDy=0;" edge="1" parent="WIyWlLk6GJQsqaUBKTNV-1" source="YrhgNjfPSIvD6Oy0800n-5" target="YrhgNjfPSIvD6Oy0800n-40">
          <mxGeometry relative="1" as="geometry" />
        </mxCell>
        <mxCell id="YrhgNjfPSIvD6Oy0800n-5" value="Accept" style="rounded=1;whiteSpace=wrap;html=1;fontSize=12;glass=0;strokeWidth=1;shadow=0;" vertex="1" parent="WIyWlLk6GJQsqaUBKTNV-1">
          <mxGeometry x="490.0000000000001" y="830" width="120" height="40" as="geometry" />
        </mxCell>
        <mxCell id="YrhgNjfPSIvD6Oy0800n-13" value="Accept Thread" style="text;html=1;align=center;verticalAlign=middle;whiteSpace=wrap;rounded=0;" vertex="1" parent="WIyWlLk6GJQsqaUBKTNV-1">
          <mxGeometry x="610" y="700" width="100" height="30" as="geometry" />
        </mxCell>
        <mxCell id="YrhgNjfPSIvD6Oy0800n-31" style="edgeStyle=orthogonalEdgeStyle;rounded=0;orthogonalLoop=1;jettySize=auto;html=1;exitX=0;exitY=1;exitDx=0;exitDy=0;entryX=0;entryY=0;entryDx=0;entryDy=0;" edge="1" parent="WIyWlLk6GJQsqaUBKTNV-1" source="YrhgNjfPSIvD6Oy0800n-14" target="YrhgNjfPSIvD6Oy0800n-17">
          <mxGeometry relative="1" as="geometry">
            <Array as="points">
              <mxPoint x="250" y="950" />
              <mxPoint x="250" y="1110" />
            </Array>
          </mxGeometry>
        </mxCell>
        <mxCell id="YrhgNjfPSIvD6Oy0800n-32" value="No" style="edgeLabel;html=1;align=center;verticalAlign=middle;resizable=0;points=[];" vertex="1" connectable="0" parent="YrhgNjfPSIvD6Oy0800n-31">
          <mxGeometry x="0.0398" y="3" relative="1" as="geometry">
            <mxPoint x="-18" y="-5" as="offset" />
          </mxGeometry>
        </mxCell>
        <mxCell id="YrhgNjfPSIvD6Oy0800n-14" value="Timeout" style="rhombus;whiteSpace=wrap;html=1;" vertex="1" parent="WIyWlLk6GJQsqaUBKTNV-1">
          <mxGeometry x="268.1700000000001" y="920" width="120" height="40" as="geometry" />
        </mxCell>
        <mxCell id="YrhgNjfPSIvD6Oy0800n-38" style="edgeStyle=orthogonalEdgeStyle;rounded=0;orthogonalLoop=1;jettySize=auto;html=1;exitX=0;exitY=1;exitDx=0;exitDy=0;entryX=0;entryY=0;entryDx=0;entryDy=0;" edge="1" parent="WIyWlLk6GJQsqaUBKTNV-1" source="YrhgNjfPSIvD6Oy0800n-17" target="YrhgNjfPSIvD6Oy0800n-14">
          <mxGeometry relative="1" as="geometry">
            <Array as="points">
              <mxPoint x="220" y="1130" />
              <mxPoint x="220" y="930" />
            </Array>
          </mxGeometry>
        </mxCell>
        <mxCell id="YrhgNjfPSIvD6Oy0800n-17" value="Timeout" style="rhombus;whiteSpace=wrap;html=1;" vertex="1" parent="WIyWlLk6GJQsqaUBKTNV-1">
          <mxGeometry x="268.1700000000001" y="1100" width="120" height="40" as="geometry" />
        </mxCell>
        <mxCell id="YrhgNjfPSIvD6Oy0800n-19" value="" style="rounded=0;html=1;jettySize=auto;orthogonalLoop=1;fontSize=11;endArrow=block;endFill=0;endSize=8;strokeWidth=1;shadow=0;labelBackgroundColor=none;edgeStyle=orthogonalEdgeStyle;" edge="1" parent="WIyWlLk6GJQsqaUBKTNV-1">
          <mxGeometry relative="1" as="geometry">
            <mxPoint x="327.93000000000006" y="1050" as="sourcePoint" />
            <mxPoint x="327.93000000000006" y="1100" as="targetPoint" />
          </mxGeometry>
        </mxCell>
        <mxCell id="YrhgNjfPSIvD6Oy0800n-25" value="" style="rounded=0;html=1;jettySize=auto;orthogonalLoop=1;fontSize=11;endArrow=block;endFill=0;endSize=8;strokeWidth=1;shadow=0;labelBackgroundColor=none;edgeStyle=orthogonalEdgeStyle;" edge="1" parent="WIyWlLk6GJQsqaUBKTNV-1">
          <mxGeometry relative="1" as="geometry">
            <mxPoint x="327.83000000000004" y="1140" as="sourcePoint" />
            <mxPoint x="327.83000000000004" y="1190" as="targetPoint" />
          </mxGeometry>
        </mxCell>
        <mxCell id="YrhgNjfPSIvD6Oy0800n-33" value="Yes" style="edgeLabel;html=1;align=center;verticalAlign=middle;resizable=0;points=[];" vertex="1" connectable="0" parent="YrhgNjfPSIvD6Oy0800n-25">
          <mxGeometry x="-0.32" y="2" relative="1" as="geometry">
            <mxPoint x="10" y="3" as="offset" />
          </mxGeometry>
        </mxCell>
        <mxCell id="YrhgNjfPSIvD6Oy0800n-89" style="edgeStyle=orthogonalEdgeStyle;rounded=0;orthogonalLoop=1;jettySize=auto;html=1;exitX=1;exitY=0.5;exitDx=0;exitDy=0;entryX=0;entryY=0.5;entryDx=0;entryDy=0;" edge="1" parent="WIyWlLk6GJQsqaUBKTNV-1" source="YrhgNjfPSIvD6Oy0800n-26" target="YrhgNjfPSIvD6Oy0800n-85">
          <mxGeometry relative="1" as="geometry" />
        </mxCell>
        <mxCell id="YrhgNjfPSIvD6Oy0800n-26" value="Send" style="rounded=1;whiteSpace=wrap;html=1;fontSize=12;glass=0;strokeWidth=1;shadow=0;" vertex="1" parent="WIyWlLk6GJQsqaUBKTNV-1">
          <mxGeometry x="268.1700000000001" y="1190" width="120" height="40" as="geometry" />
        </mxCell>
        <mxCell id="YrhgNjfPSIvD6Oy0800n-96" style="edgeStyle=orthogonalEdgeStyle;rounded=0;orthogonalLoop=1;jettySize=auto;html=1;exitX=0.5;exitY=1;exitDx=0;exitDy=0;entryX=1;entryY=0.5;entryDx=0;entryDy=0;" edge="1" parent="WIyWlLk6GJQsqaUBKTNV-1" source="YrhgNjfPSIvD6Oy0800n-40" target="YrhgNjfPSIvD6Oy0800n-45">
          <mxGeometry relative="1" as="geometry" />
        </mxCell>
        <mxCell id="YrhgNjfPSIvD6Oy0800n-40" value="Recv" style="rounded=1;whiteSpace=wrap;html=1;fontSize=12;glass=0;strokeWidth=1;shadow=0;" vertex="1" parent="WIyWlLk6GJQsqaUBKTNV-1">
          <mxGeometry x="707.0000000000001" y="830" width="120" height="40" as="geometry" />
        </mxCell>
        <mxCell id="YrhgNjfPSIvD6Oy0800n-48" style="edgeStyle=orthogonalEdgeStyle;rounded=0;orthogonalLoop=1;jettySize=auto;html=1;exitX=0;exitY=0.5;exitDx=0;exitDy=0;entryX=1;entryY=0.5;entryDx=0;entryDy=0;" edge="1" parent="WIyWlLk6GJQsqaUBKTNV-1" source="YrhgNjfPSIvD6Oy0800n-45" target="YrhgNjfPSIvD6Oy0800n-94">
          <mxGeometry relative="1" as="geometry">
            <mxPoint x="388.1700000000001" y="940" as="targetPoint" />
          </mxGeometry>
        </mxCell>
        <mxCell id="YrhgNjfPSIvD6Oy0800n-49" value="Pop" style="edgeLabel;html=1;align=center;verticalAlign=middle;resizable=0;points=[];" vertex="1" connectable="0" parent="YrhgNjfPSIvD6Oy0800n-48">
          <mxGeometry x="0.113" relative="1" as="geometry">
            <mxPoint x="-14" y="11" as="offset" />
          </mxGeometry>
        </mxCell>
        <mxCell id="YrhgNjfPSIvD6Oy0800n-45" value="Enqueue" style="rounded=1;whiteSpace=wrap;html=1;fontSize=12;glass=0;strokeWidth=1;shadow=0;" vertex="1" parent="WIyWlLk6GJQsqaUBKTNV-1">
          <mxGeometry x="490.0000000000001" y="920" width="120" height="40" as="geometry" />
        </mxCell>
        <mxCell id="YrhgNjfPSIvD6Oy0800n-64" style="edgeStyle=orthogonalEdgeStyle;rounded=0;orthogonalLoop=1;jettySize=auto;html=1;exitX=0;exitY=0.5;exitDx=0;exitDy=0;entryX=1;entryY=0.5;entryDx=0;entryDy=0;" edge="1" parent="WIyWlLk6GJQsqaUBKTNV-1" source="YrhgNjfPSIvD6Oy0800n-62" target="YrhgNjfPSIvD6Oy0800n-67">
          <mxGeometry relative="1" as="geometry" />
        </mxCell>
        <mxCell id="YrhgNjfPSIvD6Oy0800n-65" value="Yes" style="edgeLabel;html=1;align=center;verticalAlign=middle;resizable=0;points=[];" vertex="1" connectable="0" parent="YrhgNjfPSIvD6Oy0800n-64">
          <mxGeometry x="-0.7074" y="1" relative="1" as="geometry">
            <mxPoint y="-11" as="offset" />
          </mxGeometry>
        </mxCell>
        <mxCell id="YrhgNjfPSIvD6Oy0800n-71" style="edgeStyle=orthogonalEdgeStyle;rounded=0;orthogonalLoop=1;jettySize=auto;html=1;exitX=0.5;exitY=1;exitDx=0;exitDy=0;entryX=0.5;entryY=0;entryDx=0;entryDy=0;" edge="1" parent="WIyWlLk6GJQsqaUBKTNV-1" source="YrhgNjfPSIvD6Oy0800n-62">
          <mxGeometry relative="1" as="geometry">
            <mxPoint x="1222.3500000000001" y="920" as="targetPoint" />
          </mxGeometry>
        </mxCell>
        <mxCell id="YrhgNjfPSIvD6Oy0800n-72" value="No" style="edgeLabel;html=1;align=center;verticalAlign=middle;resizable=0;points=[];" vertex="1" connectable="0" parent="YrhgNjfPSIvD6Oy0800n-71">
          <mxGeometry x="-0.1833" relative="1" as="geometry">
            <mxPoint x="10" as="offset" />
          </mxGeometry>
        </mxCell>
        <mxCell id="YrhgNjfPSIvD6Oy0800n-62" value="Input" style="rhombus;whiteSpace=wrap;html=1;" vertex="1" parent="WIyWlLk6GJQsqaUBKTNV-1">
          <mxGeometry x="1162.3500000000001" y="830" width="120" height="40" as="geometry" />
        </mxCell>
        <mxCell id="YrhgNjfPSIvD6Oy0800n-68" style="edgeStyle=orthogonalEdgeStyle;rounded=0;orthogonalLoop=1;jettySize=auto;html=1;exitX=0;exitY=0.5;exitDx=0;exitDy=0;entryX=1;entryY=0.5;entryDx=0;entryDy=0;" edge="1" parent="WIyWlLk6GJQsqaUBKTNV-1" source="YrhgNjfPSIvD6Oy0800n-67" target="YrhgNjfPSIvD6Oy0800n-40">
          <mxGeometry relative="1" as="geometry" />
        </mxCell>
        <mxCell id="YrhgNjfPSIvD6Oy0800n-84" style="edgeStyle=orthogonalEdgeStyle;rounded=0;orthogonalLoop=1;jettySize=auto;html=1;exitX=0.5;exitY=1;exitDx=0;exitDy=0;entryX=0;entryY=0.25;entryDx=0;entryDy=0;" edge="1" parent="WIyWlLk6GJQsqaUBKTNV-1" source="YrhgNjfPSIvD6Oy0800n-67" target="YrhgNjfPSIvD6Oy0800n-75">
          <mxGeometry relative="1" as="geometry" />
        </mxCell>
        <mxCell id="YrhgNjfPSIvD6Oy0800n-67" value="Send" style="rounded=1;whiteSpace=wrap;html=1;fontSize=12;glass=0;strokeWidth=1;shadow=0;" vertex="1" parent="WIyWlLk6GJQsqaUBKTNV-1">
          <mxGeometry x="930" y="830" width="120" height="40" as="geometry" />
        </mxCell>
        <mxCell id="YrhgNjfPSIvD6Oy0800n-81" style="edgeStyle=orthogonalEdgeStyle;rounded=0;orthogonalLoop=1;jettySize=auto;html=1;exitX=0.5;exitY=1;exitDx=0;exitDy=0;entryX=0.5;entryY=0;entryDx=0;entryDy=0;" edge="1" parent="WIyWlLk6GJQsqaUBKTNV-1" source="YrhgNjfPSIvD6Oy0800n-75" target="YrhgNjfPSIvD6Oy0800n-80">
          <mxGeometry relative="1" as="geometry" />
        </mxCell>
        <mxCell id="YrhgNjfPSIvD6Oy0800n-75" value="Apply Data" style="rounded=1;whiteSpace=wrap;html=1;fontSize=12;glass=0;strokeWidth=1;shadow=0;" vertex="1" parent="WIyWlLk6GJQsqaUBKTNV-1">
          <mxGeometry x="1162.3500000000001" y="920" width="120" height="40" as="geometry" />
        </mxCell>
        <mxCell id="YrhgNjfPSIvD6Oy0800n-82" style="edgeStyle=orthogonalEdgeStyle;rounded=0;orthogonalLoop=1;jettySize=auto;html=1;exitX=1;exitY=0.5;exitDx=0;exitDy=0;entryX=1;entryY=0.5;entryDx=0;entryDy=0;" edge="1" parent="WIyWlLk6GJQsqaUBKTNV-1" source="YrhgNjfPSIvD6Oy0800n-80" target="YrhgNjfPSIvD6Oy0800n-62">
          <mxGeometry relative="1" as="geometry" />
        </mxCell>
        <mxCell id="YrhgNjfPSIvD6Oy0800n-80" value="Render" style="rounded=1;whiteSpace=wrap;html=1;fontSize=12;glass=0;strokeWidth=1;shadow=0;" vertex="1" parent="WIyWlLk6GJQsqaUBKTNV-1">
          <mxGeometry x="1162.3500000000001" y="1010" width="120" height="40" as="geometry" />
        </mxCell>
        <mxCell id="YrhgNjfPSIvD6Oy0800n-97" style="edgeStyle=orthogonalEdgeStyle;rounded=0;orthogonalLoop=1;jettySize=auto;html=1;exitX=0.5;exitY=0;exitDx=0;exitDy=0;entryX=0.5;entryY=1;entryDx=0;entryDy=0;" edge="1" parent="WIyWlLk6GJQsqaUBKTNV-1" source="YrhgNjfPSIvD6Oy0800n-85" target="YrhgNjfPSIvD6Oy0800n-86">
          <mxGeometry relative="1" as="geometry" />
        </mxCell>
        <mxCell id="YrhgNjfPSIvD6Oy0800n-85" value="Recv" style="rounded=1;whiteSpace=wrap;html=1;fontSize=12;glass=0;strokeWidth=1;shadow=0;" vertex="1" parent="WIyWlLk6GJQsqaUBKTNV-1">
          <mxGeometry x="930" y="1190" width="120" height="40" as="geometry" />
        </mxCell>
        <mxCell id="YrhgNjfPSIvD6Oy0800n-92" style="edgeStyle=orthogonalEdgeStyle;rounded=0;orthogonalLoop=1;jettySize=auto;html=1;exitX=0.5;exitY=0;exitDx=0;exitDy=0;entryX=0;entryY=0.75;entryDx=0;entryDy=0;" edge="1" parent="WIyWlLk6GJQsqaUBKTNV-1" source="YrhgNjfPSIvD6Oy0800n-86" target="YrhgNjfPSIvD6Oy0800n-75">
          <mxGeometry relative="1" as="geometry" />
        </mxCell>
        <mxCell id="YrhgNjfPSIvD6Oy0800n-93" value="Pop" style="edgeLabel;html=1;align=center;verticalAlign=middle;resizable=0;points=[];" vertex="1" connectable="0" parent="YrhgNjfPSIvD6Oy0800n-92">
          <mxGeometry x="-0.802" y="-2" relative="1" as="geometry">
            <mxPoint x="13" y="-6" as="offset" />
          </mxGeometry>
        </mxCell>
        <mxCell id="YrhgNjfPSIvD6Oy0800n-86" value="Enqueue" style="rounded=1;whiteSpace=wrap;html=1;fontSize=12;glass=0;strokeWidth=1;shadow=0;" vertex="1" parent="WIyWlLk6GJQsqaUBKTNV-1">
          <mxGeometry x="930.0000000000001" y="1010" width="120" height="40" as="geometry" />
        </mxCell>
        <mxCell id="YrhgNjfPSIvD6Oy0800n-94" value="Apply Input" style="rounded=1;whiteSpace=wrap;html=1;fontSize=12;glass=0;strokeWidth=1;shadow=0;" vertex="1" parent="WIyWlLk6GJQsqaUBKTNV-1">
          <mxGeometry x="268.1700000000001" y="830" width="120" height="40" as="geometry" />
        </mxCell>
      </root>
    </mxGraphModel>
  </diagram>
</mxfile>
